<?xml version="1.0" encoding="utf-8"?>
<svg version="1.1" xmlns:xlink="http://www.w3.org/1999/xlink" width="13px" height="13px" viewBox="178 285  13 13" xmlns="http://www.w3.org/2000/svg">
  <path d="M 178.5 287  A 1.5 1.5 0 0 1 180 285.5 L 189 285.5  A 1.5 1.5 0 0 1 190.5 287 L 190.5 296  A 1.5 1.5 0 0 1 189 297.5 L 180 297.5  A 1.5 1.5 0 0 1 178.5 296 L 178.5 287  Z " fill-rule="nonzero" fill="#f0f0f0" stroke="none" />
  <path d="M 178.5 287  A 1.5 1.5 0 0 1 180 285.5 L 189 285.5  A 1.5 1.5 0 0 1 190.5 287 L 190.5 296  A 1.5 1.5 0 0 1 189 297.5 L 180 297.5  A 1.5 1.5 0 0 1 178.5 296 L 178.5 287  Z " stroke-width="1" stroke="#c7c7c7" fill="none" />
</svg>