<?xml version="1.0" encoding="utf-8"?>
<svg version="1.1" xmlns:xlink="http://www.w3.org/1999/xlink" width="13px" height="13px" viewBox="273 285  13 13" xmlns="http://www.w3.org/2000/svg">
  <path d="M 273.5 287  A 1.5 1.5 0 0 1 275 285.5 L 284 285.5  A 1.5 1.5 0 0 1 285.5 287 L 285.5 296  A 1.5 1.5 0 0 1 284 297.5 L 275 297.5  A 1.5 1.5 0 0 1 273.5 296 L 273.5 287  Z " fill-rule="nonzero" fill="#ffffff" stroke="none" />
  <path d="M 273.5 287  A 1.5 1.5 0 0 1 275 285.5 L 284 285.5  A 1.5 1.5 0 0 1 285.5 287 L 285.5 296  A 1.5 1.5 0 0 1 284 297.5 L 275 297.5  A 1.5 1.5 0 0 1 273.5 296 L 273.5 287  Z " stroke-width="1" stroke="#c7c7c7" fill="none" />
</svg>